<svg width="219" height="214" viewBox="0 0 219 214" fill="none" xmlns="http://www.w3.org/2000/svg">
<path d="M109.5 0.00684366C49.0081 0.00684366 0 49.056 0 109.507C0 157.913 31.3718 198.941 74.8501 213.416C80.3456 214.449 82.3303 211.061 82.3303 208.132C82.3303 205.531 82.2687 198.654 82.2277 189.524C51.7524 196.121 45.333 174.803 45.333 174.803C40.3439 162.183 33.1443 158.796 33.1443 158.796C23.2345 152.027 33.9313 152.171 33.9313 152.171C44.9087 152.917 50.6848 163.429 50.6848 163.429C60.4508 180.182 76.3078 175.337 82.5835 172.517C83.5417 165.461 86.3955 160.609 89.5026 157.906C65.1936 155.161 39.6322 145.751 39.6322 103.792C39.6322 91.8089 43.8753 82.0497 50.8901 74.3847C49.6788 71.6404 45.9695 60.4851 51.8551 45.4014C51.8551 45.4014 61.0189 42.4792 81.9676 56.632C90.7344 54.2025 100.042 52.9912 109.343 52.9296C118.65 52.9912 127.951 54.2093 136.718 56.632C157.543 42.4792 166.7 45.4014 166.7 45.4014C172.579 60.4851 168.87 71.6335 167.802 74.3847C174.748 82.0497 178.991 91.8157 178.991 103.792C178.991 145.847 153.396 155.12 129.059 157.796C132.865 161.074 136.43 167.816 136.43 178.047C136.43 192.693 136.293 204.491 136.293 208.057C136.293 210.904 138.21 214.326 143.849 213.224C187.649 198.9 218.986 157.837 218.986 109.5C218.986 49.0492 169.978 0 109.486 0L109.5 0.00684366Z" fill="#252422"/>
</svg>
